<svg width="722" height="458" viewBox="0 0 722 458" fill="none" xmlns="http://www.w3.org/2000/svg">
<g filter="url(#filter0_i_609_104)">
<rect width="722" height="458" rx="25" fill="url(#paint0_linear_609_104)"/>
</g>
<path d="M223.208 363V345.48H226.616V363H223.208ZM236.844 363V348H240.252V363H236.844ZM231.78 348.48V345.48H245.316V348.48H231.78ZM247.232 363L253.208 345.48H258.776L264.92 363H261.416L256.208 347.808L257.432 348.336H254.432L255.68 347.808L250.64 363H247.232ZM251.408 358.344L252.488 355.464H259.592L260.648 358.344H251.408ZM269.923 363V345.48H273.331V363H269.923ZM272.851 363V360H280.411V363H272.851ZM293.492 363.456C291.908 363.456 290.532 363.176 289.364 362.616C288.212 362.056 287.252 361.328 286.484 360.432C285.732 359.52 285.164 358.544 284.78 357.504C284.412 356.448 284.228 355.432 284.228 354.456V353.928C284.228 352.856 284.42 351.792 284.804 350.736C285.188 349.664 285.764 348.696 286.532 347.832C287.316 346.968 288.284 346.28 289.436 345.768C290.588 345.24 291.94 344.976 293.492 344.976C295.028 344.976 296.372 345.24 297.524 345.768C298.676 346.28 299.636 346.968 300.404 347.832C301.188 348.696 301.772 349.664 302.156 350.736C302.54 351.792 302.732 352.856 302.732 353.928V354.456C302.732 355.432 302.54 356.448 302.156 357.504C301.788 358.544 301.22 359.52 300.452 360.432C299.7 361.328 298.74 362.056 297.572 362.616C296.42 363.176 295.06 363.456 293.492 363.456ZM293.492 360.288C294.388 360.288 295.188 360.128 295.892 359.808C296.612 359.488 297.22 359.048 297.716 358.488C298.228 357.912 298.612 357.264 298.868 356.544C299.14 355.808 299.276 355.032 299.276 354.216C299.276 353.336 299.14 352.528 298.868 351.792C298.612 351.056 298.228 350.416 297.716 349.872C297.22 349.328 296.612 348.904 295.892 348.6C295.172 348.296 294.372 348.144 293.492 348.144C292.596 348.144 291.788 348.296 291.068 348.6C290.348 348.904 289.732 349.328 289.22 349.872C288.724 350.416 288.34 351.056 288.068 351.792C287.812 352.528 287.684 353.336 287.684 354.216C287.684 355.032 287.812 355.808 288.068 356.544C288.34 357.264 288.724 357.912 289.22 358.488C289.732 359.048 290.348 359.488 291.068 359.808C291.788 360.128 292.596 360.288 293.492 360.288ZM316.005 363V345.48H319.413V363H316.005ZM318.933 355.704V352.824L325.941 352.8V355.68L318.933 355.704ZM318.933 348.36V345.48H326.277V348.36H318.933ZM342.343 357.624V354.672H345.751C346.439 354.672 347.015 354.536 347.479 354.264C347.959 353.992 348.319 353.616 348.559 353.136C348.815 352.656 348.943 352.104 348.943 351.48C348.943 350.856 348.815 350.304 348.559 349.824C348.319 349.344 347.959 348.976 347.479 348.72C347.015 348.448 346.439 348.312 345.751 348.312H342.343V345.36H345.463C346.935 345.36 348.183 345.6 349.207 346.08C350.247 346.56 351.039 347.248 351.583 348.144C352.127 349.024 352.399 350.072 352.399 351.288V351.672C352.399 352.888 352.127 353.944 351.583 354.84C351.039 355.72 350.247 356.408 349.207 356.904C348.183 357.384 346.935 357.624 345.463 357.624H342.343ZM339.415 363V345.36H342.823V363H339.415ZM371.167 363.456C369.615 363.456 368.303 363.208 367.231 362.712C366.175 362.216 365.367 361.536 364.807 360.672C364.247 359.792 363.967 358.8 363.967 357.696H367.303C367.303 358.16 367.431 358.616 367.687 359.064C367.943 359.496 368.351 359.848 368.911 360.12C369.487 360.392 370.239 360.528 371.167 360.528C371.999 360.528 372.695 360.408 373.255 360.168C373.815 359.928 374.231 359.616 374.503 359.232C374.775 358.832 374.911 358.384 374.911 357.888C374.911 357.264 374.647 356.768 374.119 356.4C373.591 356.016 372.775 355.776 371.671 355.68L370.135 355.56C368.455 355.416 367.111 354.896 366.103 354C365.111 353.088 364.615 351.888 364.615 350.4C364.615 349.28 364.879 348.32 365.407 347.52C365.935 346.704 366.671 346.08 367.615 345.648C368.575 345.2 369.695 344.976 370.975 344.976C372.303 344.976 373.447 345.208 374.407 345.672C375.367 346.136 376.111 346.792 376.639 347.64C377.167 348.472 377.431 349.456 377.431 350.592H374.095C374.095 350.112 373.975 349.672 373.735 349.272C373.511 348.856 373.167 348.528 372.703 348.288C372.255 348.032 371.679 347.904 370.975 347.904C370.303 347.904 369.743 348.016 369.295 348.24C368.847 348.464 368.511 348.768 368.287 349.152C368.063 349.536 367.951 349.952 367.951 350.4C367.951 350.944 368.151 351.424 368.551 351.84C368.951 352.24 369.583 352.472 370.447 352.536L371.983 352.68C373.231 352.776 374.327 353.04 375.271 353.472C376.215 353.904 376.943 354.488 377.455 355.224C377.983 355.96 378.247 356.848 378.247 357.888C378.247 358.992 377.959 359.968 377.383 360.816C376.807 361.648 375.983 362.296 374.911 362.76C373.855 363.224 372.607 363.456 371.167 363.456ZM391.995 363.456C390.411 363.456 389.035 363.176 387.867 362.616C386.715 362.056 385.755 361.328 384.987 360.432C384.235 359.52 383.667 358.544 383.283 357.504C382.915 356.448 382.731 355.432 382.731 354.456V353.928C382.731 352.856 382.923 351.792 383.307 350.736C383.691 349.664 384.267 348.696 385.035 347.832C385.819 346.968 386.787 346.28 387.939 345.768C389.091 345.24 390.443 344.976 391.995 344.976C393.531 344.976 394.875 345.24 396.027 345.768C397.179 346.28 398.139 346.968 398.907 347.832C399.691 348.696 400.275 349.664 400.659 350.736C401.043 351.792 401.235 352.856 401.235 353.928V354.456C401.235 355.432 401.043 356.448 400.659 357.504C400.291 358.544 399.723 359.52 398.955 360.432C398.203 361.328 397.243 362.056 396.075 362.616C394.923 363.176 393.563 363.456 391.995 363.456ZM391.995 360.288C392.891 360.288 393.691 360.128 394.395 359.808C395.115 359.488 395.723 359.048 396.219 358.488C396.731 357.912 397.115 357.264 397.371 356.544C397.643 355.808 397.779 355.032 397.779 354.216C397.779 353.336 397.643 352.528 397.371 351.792C397.115 351.056 396.731 350.416 396.219 349.872C395.723 349.328 395.115 348.904 394.395 348.6C393.675 348.296 392.875 348.144 391.995 348.144C391.099 348.144 390.291 348.296 389.571 348.6C388.851 348.904 388.235 349.328 387.723 349.872C387.227 350.416 386.843 351.056 386.571 351.792C386.315 352.528 386.187 353.336 386.187 354.216C386.187 355.032 386.315 355.808 386.571 356.544C386.843 357.264 387.227 357.912 387.723 358.488C388.235 359.048 388.851 359.488 389.571 359.808C390.291 360.128 391.099 360.288 391.995 360.288ZM414.153 363.456C412.521 363.456 411.145 363.144 410.025 362.52C408.905 361.896 408.049 361.024 407.457 359.904C406.881 358.768 406.593 357.44 406.593 355.92V345.48H410.001V356.112C410.001 356.944 410.161 357.68 410.481 358.32C410.801 358.944 411.265 359.432 411.873 359.784C412.497 360.12 413.257 360.288 414.153 360.288C415.033 360.288 415.777 360.12 416.385 359.784C417.009 359.432 417.473 358.944 417.777 358.32C418.097 357.696 418.257 356.96 418.257 356.112V345.48H421.665V355.92C421.665 357.44 421.377 358.768 420.801 359.904C420.241 361.024 419.401 361.896 418.281 362.52C417.161 363.144 415.785 363.456 414.153 363.456ZM426.741 363V360.072L436.413 348.36L436.461 348.864L435.741 347.904L436.221 348.288H427.029V345.48H440.181V348.408L430.485 360.096L430.413 359.544L431.205 360.624L430.629 360.192H440.301V363H426.741ZM444.079 363L450.055 345.48H455.623L461.767 363H458.263L453.055 347.808L454.279 348.336H451.279L452.527 347.808L447.487 363H444.079ZM448.255 358.344L449.335 355.464H456.439L457.495 358.344H448.255Z" fill="#FEFBFF"/>
<path fill-rule="evenodd" clip-rule="evenodd" d="M94.6654 319.851C94.6654 319.852 94.6657 319.826 94.6766 319.771C94.6871 319.717 94.7054 319.646 94.7347 319.559C94.7935 319.385 94.8901 319.165 95.0334 318.917C95.32 318.421 95.7759 317.841 96.4342 317.301C97.733 316.235 99.8636 315.292 103.14 315.533C116.1 316.484 123.415 325.41 123.415 332.161V372.168C123.415 372.805 123.268 373.099 123.132 373.241C123.004 373.375 122.718 373.546 122.028 373.546H114.306C113.616 373.546 113.33 373.375 113.202 373.241C113.066 373.1 112.919 372.805 112.919 372.168V335.238C112.919 332.828 111.735 330.421 109.988 328.634C108.238 326.842 105.817 325.566 103.213 325.566H94.6654V319.851ZM103.213 327.566H94.6654V372.168C94.6654 373.162 94.4817 374.108 93.7928 374.763C93.1156 375.407 92.1813 375.546 91.2784 375.546H83.4154C82.6084 375.546 81.7233 375.389 81.0382 374.792C80.3257 374.171 80.0284 373.251 80.0284 372.168V334.819C80.0284 332.956 81.0921 330.668 82.6635 328.878C84.2482 327.074 86.5354 325.566 89.1714 325.566H92.6654V319.851C92.6654 319.284 92.9171 318.582 93.3016 317.917C93.7056 317.217 94.317 316.45 95.1659 315.754C96.8815 314.347 99.525 313.262 103.287 313.538C117.005 314.545 125.415 324.098 125.415 332.161V372.168C125.415 373.069 125.212 373.963 124.575 374.626C123.931 375.297 123.024 375.546 122.028 375.546H114.306C113.311 375.546 112.403 375.297 111.759 374.626C111.123 373.963 110.919 373.069 110.919 372.168V335.238C110.919 333.463 110.026 331.534 108.558 330.031C107.093 328.532 105.161 327.566 103.213 327.566ZM89.1714 327.566H92.6654V372.168C92.6654 372.991 92.498 373.235 92.4146 373.314C92.3196 373.404 92.0604 373.546 91.2784 373.546H83.4154C82.8182 373.546 82.5098 373.422 82.3524 373.285C82.2226 373.171 82.0284 372.902 82.0284 372.168V334.819C82.0284 333.604 82.7896 331.766 84.1664 330.198C85.5299 328.645 87.3142 327.566 89.1714 327.566ZM164.111 381.128C164.111 381.13 164.11 381.156 164.1 381.209C164.089 381.262 164.071 381.333 164.042 381.42C163.983 381.595 163.886 381.814 163.743 382.063C163.457 382.559 163.001 383.139 162.342 383.679C161.043 384.744 158.913 385.687 155.636 385.447C142.676 384.495 135.361 375.569 135.361 368.819V328.812C135.361 328.175 135.508 327.88 135.644 327.739C135.772 327.605 136.058 327.434 136.748 327.434H144.471C145.16 327.434 145.446 327.605 145.575 327.739C145.71 327.88 145.858 328.175 145.858 328.812V365.741C145.858 368.151 147.042 370.559 148.788 372.346C150.539 374.137 152.96 375.414 155.563 375.414H164.111V381.128V381.128ZM155.563 373.414H164.111V328.812C164.111 327.817 164.295 326.872 164.984 326.216C165.661 325.572 166.595 325.434 167.498 325.434H175.361C176.168 325.434 177.053 325.59 177.738 326.187C178.451 326.808 178.748 327.728 178.748 328.812V366.161C178.748 368.023 177.684 370.312 176.113 372.101C174.528 373.906 172.241 375.414 169.605 375.414H166.111V381.128C166.111 381.695 165.859 382.397 165.475 383.063C165.071 383.762 164.459 384.529 163.611 385.225C161.895 386.632 159.252 387.718 155.49 387.441C141.772 386.434 133.361 376.882 133.361 368.819V328.812C133.361 327.91 133.565 327.016 134.201 326.353C134.845 325.683 135.753 325.434 136.748 325.434H144.471C145.466 325.434 146.373 325.683 147.017 326.353C147.654 327.016 147.858 327.91 147.858 328.812V365.741C147.858 367.516 148.75 369.445 150.219 370.948C151.683 372.447 153.615 373.414 155.563 373.414ZM169.605 373.414H166.111V328.812C166.111 327.988 166.279 327.745 166.362 327.666C166.457 327.575 166.716 327.434 167.498 327.434H175.361C175.958 327.434 176.267 327.558 176.424 327.695C176.554 327.808 176.748 328.077 176.748 328.812V366.161C176.748 367.376 175.987 369.214 174.61 370.782C173.247 372.334 171.462 373.414 169.605 373.414Z" fill="#FEFBFF"/>
<circle cx="581.889" cy="86.4971" r="45.7505" fill="#E71924"/>
<circle cx="637.647" cy="86.4971" r="45.7505" fill="#F99F19"/>
<path fill-rule="evenodd" clip-rule="evenodd" d="M609.768 122.595C620.636 114.23 627.64 101.092 627.64 86.3172C627.64 71.5428 620.636 58.404 609.768 50.0396C598.9 58.404 591.897 71.5428 591.897 86.3172C591.897 101.092 598.9 114.23 609.768 122.595Z" fill="#F26520"/>
<rect x="80.4209" y="156.195" width="97.9347" height="69.3406" rx="6.07624" fill="url(#paint1_linear_609_104)" stroke="#211F21" stroke-width="2.14455"/>
<path d="M80.7783 178.713H110.087" stroke="#211F21" stroke-width="2" stroke-linecap="round"/>
<path d="M80.7783 200.873H109.445" stroke="#211F21" stroke-width="2" stroke-linecap="round"/>
<path d="M149.404 200.873H177.998" stroke="#211F21" stroke-width="2" stroke-linecap="round"/>
<path d="M148.975 179.428H177.998" stroke="#211F21" stroke-width="2" stroke-linecap="round"/>
<circle cx="129.388" cy="166.561" r="2.14455" fill="#211F21"/>
<path d="M231.053 205.824C236.325 192.59 236.926 185.119 231.053 171.645C230.43 170.215 231.053 169.024 231.768 168.786C232.483 168.547 233.589 168.786 234.27 170.215C241.188 184.73 240.767 192.87 234.627 207.387C233.912 208.817 232.575 208.998 231.768 208.46C230.824 207.831 230.608 206.941 231.053 205.824Z" fill="#FEFBFF"/>
<path d="M223.547 172.717C222.832 173.075 222.375 174.43 223.19 175.934C227.999 185.94 227.801 191.662 223.19 202.026C222.686 203.071 222.998 204.226 223.905 204.528C224.977 204.886 225.913 204.125 226.406 203.098C231.701 192.084 231.84 185.756 226.406 174.147C225.905 173.075 224.619 172.181 223.547 172.717Z" fill="#FEFBFF"/>
<path d="M216.399 177.364C215.326 177.721 215.136 178.908 215.684 180.223C218.53 187.063 218.979 190.898 215.684 197.737C215.041 198.929 214.83 200.193 216.041 200.596C217.252 201 218.126 200.363 218.543 199.524C222.766 191.149 221.82 186.454 218.543 178.079C218.263 177.364 217.471 177.006 216.399 177.364Z" fill="#FEFBFF"/>
<path d="M208.893 180.223C207.82 180.938 207.668 182.022 208.535 183.797C210.344 187.564 210.303 189.68 208.535 193.448C207.713 195.11 207.463 197.022 208.893 197.38C210.322 197.737 210.957 197.229 211.752 195.235C213.578 189.987 213.756 187.02 211.752 181.653C211.291 180.261 210.322 179.508 208.893 180.223Z" fill="#FEFBFF"/>
<path d="M145.115 170.849C142.372 161.508 137.251 156.91 129.03 156.91C119.023 156.91 116.194 164.53 110.087 178.355C113.998 187.507 114.039 192.437 110.087 200.873C116.494 219.254 121.24 224.915 129.388 224.821C140.111 224.821 143.163 215.733 149.046 200.873C145.952 192.497 145.622 187.875 148.5 179.5" stroke="#211F21" stroke-width="2" stroke-linecap="round"/>
<defs>
<filter id="filter0_i_609_104" x="0" y="0" width="725" height="461" filterUnits="userSpaceOnUse" color-interpolation-filters="sRGB">
<feFlood flood-opacity="0" result="BackgroundImageFix"/>
<feBlend mode="normal" in="SourceGraphic" in2="BackgroundImageFix" result="shape"/>
<feColorMatrix in="SourceAlpha" type="matrix" values="0 0 0 0 0 0 0 0 0 0 0 0 0 0 0 0 0 0 127 0" result="hardAlpha"/>
<feOffset dx="3" dy="3"/>
<feGaussianBlur stdDeviation="3"/>
<feComposite in2="hardAlpha" operator="arithmetic" k2="-1" k3="1"/>
<feColorMatrix type="matrix" values="0 0 0 0 1 0 0 0 0 1 0 0 0 0 1 0 0 0 0.25 0"/>
<feBlend mode="normal" in2="shape" result="effect1_innerShadow_609_104"/>
</filter>
<linearGradient id="paint0_linear_609_104" x1="610.09" y1="61.83" x2="354.096" y2="526.995" gradientUnits="userSpaceOnUse">
<stop stop-color="#A950C4"/>
<stop offset="1" stop-color="#82269E"/>
</linearGradient>
<linearGradient id="paint1_linear_609_104" x1="171" y1="165" x2="87" y2="221" gradientUnits="userSpaceOnUse">
<stop stop-color="#F4F4F4"/>
<stop offset="1" stop-color="#D6D6D6"/>
</linearGradient>
</defs>
</svg>
